<svg width="34" height="34" viewBox="0 0 34 34" fill="none" xmlns="http://www.w3.org/2000/svg">
<path d="M3.13205 18.334H0V15.2783H3.13205C3.81957 8.90724 8.90724 3.81957 15.2783 3.13205V0H18.334V3.13205C24.705 3.81957 29.7927 8.90724 30.4802 15.2783H33.6122V18.334H30.4802C29.7927 24.705 24.705 29.7927 18.334 30.4802V33.6122H15.2783V30.4802C8.90724 29.7927 3.81957 24.705 3.13205 18.334ZM16.8061 6.11132C13.9697 6.11132 11.2494 7.23809 9.24375 9.24375C7.23809 11.2494 6.11132 13.9697 6.11132 16.8061C6.11132 19.6426 7.23809 22.3628 9.24375 24.3685C11.2494 26.3742 13.9697 27.5009 16.8061 27.5009C19.6426 27.5009 22.3628 26.3742 24.3685 24.3685C26.3742 22.3628 27.5009 19.6426 27.5009 16.8061C27.5009 13.9697 26.3742 11.2494 24.3685 9.24375C22.3628 7.23809 19.6426 6.11132 16.8061 6.11132Z" fill="#01CDCE"/>
</svg>
