<?xml version="1.0" encoding="UTF-8"?>
<svg id="_레이어_2" data-name="레이어_2" xmlns="http://www.w3.org/2000/svg" viewBox="0 0 79.03 66.55">
  <defs>
    <style>
      .cls-1 {
        fill: none;
        stroke: #040000;
        stroke-miterlimit: 10;
        stroke-width: 2px;
      }

      .cls-2 {
        fill: #f88;
      }

      .cls-3 {
        fill: #01cdce;
      }
    </style>
  </defs>
  <g id="_레이어_1-2" data-name="레이어_1">
    <g id="ddong">
      <path class="cls-3" d="M42.47,2.51s-18.52,3.41-18.52,12.3,3.7,12.74,3.7,12.74c0,0-7.41-3.11-11.7,4s.15,11.56.15,11.56c0,0-8.23,3.61-4.89,13.63,2.81,8.44,12.15,8.59,12.15,8.59l-13.04.22s-5.93-1.11-6.81-4.22-7.56-13.93,6.44-19.33c14-5.41,0,0,0,0,0,0-2.74-9.85,3.63-14.15,6.37-4.3,0,0,0,0l5.19-2.67S13.58,7.1,42.47,2.51Z"/>
      <path class="cls-1" d="M69.29,41.85s2.22-4.22-.3-10c-2.52-5.78-8.96-5.78-8.96-5.78.96-1.93,1.04-3.93,1.04-3.93,0,0,.74-4.59-10.96-9.56-11.7-4.96-6.67-11.04-6.67-11.04C11.21,8.14,18.99,25.99,18.99,25.99c0,0-5.48-.22-8.22,4.59-3.32,5.84-.81,11.41-.81,11.41,0,0-9.85,2.37-8.89,12.37s9.26,11.19,9.26,11.19l1.93-.07h56.52l2.81-.89s6.22-2.81,6.44-11.33c.22-8.52-8.74-11.41-8.74-11.41Z"/>
      <g>
        <path d="M31.91,47.5h14.22s-.8,6.63-6.85,6.63-7.37-6.63-7.37-6.63Z"/>
        <circle cx="29.05" cy="40.44" r="2.72"/>
        <path class="cls-2" d="M35.71,53.17c.95.58,2.12.96,3.57.96,1.52,0,2.71-.42,3.64-1.05-.68-1.29-2.02-2.18-3.58-2.18s-2.96.93-3.63,2.27Z"/>
        <circle cx="48.55" cy="40.44" r="2.72"/>
      </g>
    </g>
  </g>
</svg>