<svg width="167" height="106" viewBox="0 0 167 106" fill="none" xmlns="http://www.w3.org/2000/svg">
<g id="Group 8">
<path id="Vector" d="M53.0333 4.5761C50.4106 3.22244 41.2564 -0.669358 31.3069 4.94837C22.0851 10.1431 8.10843 7.26654 2.23689 5.67598L2 102.226C5.87488 103.783 13.7092 105.763 22.102 101.059C32.2207 95.3903 48.0755 99.3329 52.7964 100.72L53.0333 4.59302V4.5761Z" fill="#01CDCE" stroke="black" stroke-width="2.50429" stroke-miterlimit="10"/>
<path id="Vector_2" d="M77.7048 100.365C85.996 100.365 55.2508 99.874 52.425 99.874L52.7127 4.64346C52.7127 4.64346 68.3814 3.32362 66.6555 4.89726C65.5387 5.91251 67.4 100.348 77.7217 100.365H77.7048Z" fill="#01CDCE"/>
<path id="Vector_3" d="M164.339 3.10385H51.0371V100.348H164.339V3.10385Z" stroke="black" stroke-width="3.79027" stroke-linecap="round" stroke-linejoin="round"/>
<path id="Vector_4" d="M96.9104 57.1659H120.972C120.972 57.1659 119.618 68.3844 109.381 68.3844C99.1439 68.3844 96.9104 57.1659 96.9104 57.1659Z" fill="black"/>
<path id="Vector_5" d="M92.071 49.8222C94.6129 49.8222 96.6735 47.7616 96.6735 45.2197C96.6735 42.6779 94.6129 40.6173 92.071 40.6173C89.5291 40.6173 87.4685 42.6779 87.4685 45.2197C87.4685 47.7616 89.5291 49.8222 92.071 49.8222Z" fill="black"/>
<path id="Vector_6" d="M103.323 66.7603C104.931 67.7417 106.911 68.3847 109.364 68.3847C111.936 68.3847 113.95 67.674 115.523 66.608C114.373 64.4252 112.105 62.9192 109.466 62.9192C106.826 62.9192 104.457 64.4929 103.323 66.7603Z" fill="#FF8888"/>
<path id="Vector_7" d="M125.067 49.8222C127.608 49.8222 129.669 47.7616 129.669 45.2197C129.669 42.6779 127.608 40.6173 125.067 40.6173C122.525 40.6173 120.464 42.6779 120.464 45.2197C120.464 47.7616 122.525 49.8222 125.067 49.8222Z" fill="black"/>
<path id="Vector_8" d="M63.761 4.13622V7.58806" stroke="black" stroke-width="1.72593" stroke-linecap="round" stroke-linejoin="round"/>
<path id="Vector_9" d="M63.761 14.4577V93.4781" stroke="black" stroke-width="1.72593" stroke-linecap="round" stroke-linejoin="round" stroke-dasharray="6.87 6.87"/>
<path id="Vector_10" d="M63.761 96.913V100.348" stroke="black" stroke-width="1.72593" stroke-linecap="round" stroke-linejoin="round"/>
</g>
</svg>
